<svg width="36" height="36" viewBox="0 0 36 36" fill="none" xmlns="http://www.w3.org/2000/svg">
<rect width="36" height="36" fill="#14161A"/>
<path d="M11.3318 25.6422C11.3124 25.6266 11.2943 25.6134 11.2779 25.5983C11.0791 25.4143 10.8873 25.2233 10.7034 25.0242C10.6561 24.9728 10.6086 24.9216 10.561 24.8705C10.5349 24.8424 10.5243 24.8225 10.5604 24.7866C10.9021 24.446 11.2412 24.1024 11.5812 23.7601C11.9616 23.3769 12.3422 22.994 12.7226 22.6108C13.3271 22.0015 13.9313 21.3919 14.5358 20.7825C15.1506 20.1627 15.7655 19.5432 16.3805 18.9237C16.9174 18.3828 17.4548 17.8423 17.9908 17.3003C18.0202 17.2706 18.0364 17.2719 18.0637 17.2995C18.3121 17.5508 18.561 17.8015 18.811 18.0509C18.8472 18.087 18.8187 18.1039 18.7977 18.125C18.5531 18.3713 18.3083 18.6173 18.0637 18.8636C17.1635 19.7703 16.2633 20.6769 15.3633 21.5839C15.0608 21.8887 14.7595 22.1946 14.457 22.4993C13.8543 23.1064 13.2511 23.713 12.648 24.3197C12.3095 24.6601 11.9704 24.9999 11.6319 25.3403C11.5437 25.429 11.4567 25.5191 11.369 25.6083C11.3577 25.6199 11.3452 25.6301 11.3318 25.6422Z" fill="#C84646"/>
<path d="M17.4892 16.7228C17.4863 16.7451 17.4681 16.7541 17.4559 16.7664C17.1891 17.0368 16.9218 17.3067 16.6542 17.5764C16.3518 17.8811 16.0491 18.1852 15.7467 18.4898C15.1971 19.0436 14.6477 19.5975 14.0981 20.1513C13.563 20.6907 13.0278 21.2301 12.4923 21.7694C11.7326 22.5345 10.9727 23.2996 10.2128 24.0647C10.1679 24.1099 10.1218 24.1539 10.0787 24.2009C10.0527 24.2294 10.0364 24.2298 10.0127 24.1976C9.85472 23.9819 9.70421 23.7609 9.55775 23.5371C9.53444 23.5015 9.54941 23.4816 9.57284 23.4582C9.72077 23.3105 9.86882 23.1626 10.016 23.0141C10.4884 22.5375 10.96 22.0601 11.4328 21.5839C11.8204 21.1934 12.2095 20.8042 12.5972 20.4138C13.0382 19.9698 13.4786 19.5252 13.9192 19.0807C14.4485 18.5468 14.9773 18.0126 15.5069 17.479C15.954 17.0286 16.4022 16.5793 16.8489 16.1283C16.8792 16.0977 16.8949 16.0971 16.9255 16.1296C17.1026 16.318 17.2826 16.5037 17.4616 16.6904C17.4715 16.7007 17.4802 16.7123 17.4892 16.7228Z" fill="#C84646"/>
<path d="M12.6324 26.6443C12.6211 26.637 12.6092 26.6292 12.5973 26.6214C12.3774 26.4783 12.1643 26.3255 11.9546 26.1677C11.9139 26.1371 11.925 26.1227 11.9529 26.0946C12.3355 25.7103 12.7173 25.3254 13.0993 24.9403C13.7214 24.3131 14.3435 23.6856 14.9657 23.0584C15.5181 22.5016 16.0706 21.945 16.623 21.3884C17.1555 20.8518 17.688 20.3153 18.2207 19.779C18.5898 19.4074 18.9596 19.0364 19.328 18.664C19.3558 18.6359 19.3719 18.6254 19.4037 18.6603C19.5809 18.8546 19.7595 19.0475 19.9398 19.2388C19.9735 19.2745 19.9452 19.2876 19.9265 19.3065C19.5086 19.7284 19.0904 20.1501 18.6724 20.5719C18.0865 21.1628 17.5009 21.7542 16.9148 22.345C16.1004 23.166 15.2854 23.9865 14.4705 24.8071C13.9103 25.3713 13.3499 25.9352 12.7896 26.4993C12.7491 26.5401 12.7088 26.5812 12.6678 26.6212C12.6581 26.6307 12.6509 26.6456 12.6324 26.6443Z" fill="white"/>
<path d="M25.4666 11.3993C25.4572 11.4099 25.4473 11.4228 25.4359 11.4342C24.9411 11.9329 24.446 12.4314 23.9514 12.9302C23.5991 13.2855 23.2481 13.6419 22.8955 13.9971C22.3838 14.5128 21.8713 15.0275 21.3593 15.5431C20.9513 15.9539 20.5437 16.3652 20.136 16.7762C20.1172 16.7951 20.0978 16.8134 20.0783 16.8315C20.0267 16.8794 19.9745 16.8814 19.9218 16.8376C19.6653 16.6233 19.4097 16.4081 19.1516 16.1957C19.1105 16.1618 19.1362 16.1468 19.1575 16.1254C19.4757 15.8046 19.7938 15.4836 20.1121 15.163C20.7747 14.4953 21.4372 13.8274 22.1001 13.1601C22.5253 12.7321 22.952 12.3054 23.3769 11.8771C23.6481 11.6037 23.917 11.3281 24.1878 11.0541C24.3347 10.9055 24.4839 10.7591 24.6309 10.6106C24.6581 10.5831 24.6756 10.5822 24.7056 10.6097C24.96 10.8425 25.2012 11.0884 25.4309 11.3462C25.4442 11.3612 25.4615 11.374 25.4666 11.3993Z" fill="#C84646"/>
<path d="M18.5302 15.678C18.5166 15.6682 18.5044 15.6605 18.4935 15.6514C18.297 15.4867 18.1012 15.3211 17.9035 15.1579C17.8651 15.1261 17.8624 15.1087 17.9001 15.071C18.4257 14.5432 18.9491 14.0132 19.4735 13.4841C20.0169 12.9359 20.5608 12.3881 21.1045 11.8402C21.6527 11.2876 22.2008 10.7351 22.749 10.1828C22.9355 9.99484 23.1232 9.80801 23.3085 9.61883C23.3449 9.58174 23.3704 9.57715 23.4158 9.60804C23.6291 9.75343 23.8418 9.89969 24.047 10.0569C24.078 10.0807 24.08 10.0938 24.0521 10.1217C23.6882 10.487 23.3251 10.853 22.9619 11.2191C22.6972 11.486 22.4327 11.7531 22.1679 12.0199C21.6721 12.5195 21.1762 13.0187 20.6804 13.5182C20.1454 14.0573 19.6107 14.5965 19.0758 15.1354C18.9065 15.3059 18.7365 15.4754 18.5666 15.6454C18.5552 15.6568 18.5427 15.6669 18.5302 15.678Z" fill="#C84646"/>
<path d="M16.375 15.5289C16.3632 15.5418 16.354 15.5525 16.3441 15.5625C16.1535 15.7547 15.9626 15.9465 15.7722 16.1389C15.4943 16.4199 15.2172 16.7018 14.9386 16.9825C14.6873 17.2355 14.434 17.4866 14.1826 17.7397C13.7691 18.1559 13.3564 18.573 12.9434 18.9898C12.546 19.3907 12.1488 19.792 11.751 20.1926C11.1061 20.8422 10.4608 21.4915 9.81571 22.1409C9.60731 22.3508 9.39853 22.5603 9.19136 22.7715C9.15762 22.806 9.1402 22.813 9.11665 22.7618C9.03435 22.5824 8.94922 22.4043 8.86311 22.2266C8.84692 22.1934 8.8506 22.1743 8.87697 22.1477C9.38013 21.6428 9.88219 21.1367 10.3841 20.6307C10.9916 20.0182 11.5986 19.4054 12.2062 18.793C12.7529 18.242 13.2998 17.6912 13.8469 17.1406C14.2767 16.7082 14.707 16.2762 15.1367 15.8436C15.391 15.5877 15.645 15.3314 15.8978 15.074C15.9345 15.0367 15.954 15.0293 15.9925 15.0772C16.1058 15.218 16.2263 15.3529 16.344 15.4902C16.3543 15.5022 16.364 15.5149 16.375 15.5289Z" fill="#C84646"/>
<path d="M26.4603 12.7221C26.4458 12.7374 26.4322 12.7526 26.4178 12.767C25.8768 13.3126 25.3357 13.858 24.7946 14.4035C24.3462 14.8557 23.8979 15.308 23.4494 15.76C22.72 16.495 21.9905 17.2298 21.2613 17.9648C21.2385 17.9878 21.2232 18.0076 21.1889 17.9742C21.0038 17.7934 20.8143 17.6174 20.6195 17.4473C20.5831 17.4154 20.5816 17.3983 20.6171 17.3628C21.1624 16.8157 21.7063 16.267 22.2505 15.7187C22.7598 15.2055 23.2691 14.6923 23.7784 14.1792C24.4904 13.4619 25.2027 12.7449 25.9144 12.0271C25.9447 11.9966 25.9602 11.9877 25.9912 12.0305C26.1459 12.2436 26.2955 12.4601 26.4366 12.6827C26.4442 12.6948 26.4514 12.7073 26.4603 12.7221Z" fill="white"/>
<path d="M13.3121 27.0451C13.436 26.9216 13.5552 26.8032 13.6738 26.6841C13.9217 26.4352 14.1694 26.1859 14.4171 25.9366C14.9131 25.4369 15.409 24.9371 15.905 24.4373C16.2449 24.0948 16.5844 23.752 16.9243 23.4096C17.5019 22.828 18.0798 22.2468 18.6574 21.6654C18.9421 21.3787 19.2263 21.0916 19.5109 20.805C19.8106 20.5031 20.1106 20.2017 20.4104 19.9001C20.4628 19.8474 20.4637 19.8465 20.5105 19.9069C20.6187 20.0467 20.7248 20.1883 20.8342 20.3271C20.8619 20.3623 20.8587 20.3825 20.8278 20.4136C20.0591 21.187 19.2915 21.9615 18.5235 22.7357C17.968 23.2957 17.4127 23.8556 16.8571 24.4153C16.0163 25.2624 15.1754 26.1092 14.3345 26.9561C14.2129 27.0785 14.0911 27.2008 13.9691 27.3229C13.9541 27.3379 13.9438 27.3566 13.9134 27.3428C13.7131 27.2514 13.5161 27.1542 13.3121 27.0451Z" fill="white"/>
<path d="M8.54651 21.4034C8.47782 21.2125 8.42361 21.0253 8.37 20.8377C8.36068 20.8051 8.38018 20.7877 8.3992 20.7687C8.67691 20.4899 8.95498 20.2114 9.2322 19.932C9.83509 19.3245 10.4374 18.7165 11.04 18.1089C11.6083 17.536 12.1767 16.9631 12.7453 16.3903C13.3023 15.8294 13.8596 15.2686 14.4166 14.7075C14.648 14.4744 14.8797 14.2416 15.1097 14.0069C15.148 13.9678 15.1662 13.9661 15.1982 14.0154C15.2788 14.1396 15.365 14.2602 15.4521 14.3799C15.4755 14.412 15.4725 14.4307 15.4462 14.4571C15.0777 14.8264 14.7097 15.1962 14.3422 15.5665C14.0862 15.8244 13.8317 16.0837 13.5757 16.3416C13.0642 16.857 12.5521 17.372 12.0405 17.8873C11.4908 18.441 10.9414 18.9947 10.392 19.5487C9.79474 20.1507 9.19761 20.753 8.60036 21.355C8.58491 21.3705 8.56774 21.3845 8.54651 21.4034Z" fill="#C84646"/>
<path d="M14.7081 27.6555C14.8597 27.5024 15.0099 27.3508 15.16 27.1993C15.5534 26.8024 15.9467 26.4051 16.3404 26.0084C16.8891 25.4558 17.4385 24.9038 17.987 24.3511C18.53 23.8041 19.072 23.2565 19.6148 22.7096C20.1603 22.1599 20.7065 21.6109 21.2514 21.0608C21.2835 21.0282 21.2961 21.0216 21.3221 21.0689C21.3965 21.2043 21.4679 21.341 21.5385 21.4783C21.5591 21.5185 21.5537 21.5421 21.5226 21.5733C20.9356 22.1633 20.3499 22.7546 19.7639 23.3455C19.4486 23.6635 19.1331 23.9815 18.8176 24.2994C17.984 25.1397 17.1505 25.9801 16.3165 26.82C16.0198 27.1188 15.7213 27.4158 15.4253 27.7153C15.3921 27.7489 15.3624 27.7601 15.3141 27.755C15.1456 27.7374 14.9771 27.7186 14.8102 27.689C14.7763 27.683 14.7428 27.6751 14.7081 27.6555Z" fill="white"/>
<path d="M22.6875 9.17658C22.51 9.35348 22.3393 9.52232 22.17 9.69277C21.5535 10.3138 20.9375 10.9354 20.3213 11.5568C20.048 11.8325 19.7749 12.1081 19.5013 12.3835C18.7792 13.1106 18.0566 13.8373 17.3353 14.5654C17.3001 14.601 17.2784 14.6045 17.2425 14.5679C17.1188 14.4422 16.9927 14.319 16.867 14.1956C16.8325 14.1617 16.8246 14.1375 16.866 14.0965C17.1369 13.8281 17.4045 13.5566 17.6732 13.2859C18.143 12.8124 18.6126 12.3386 19.0826 11.8652C19.4699 11.4749 19.8578 11.0849 20.2453 10.6946C20.5561 10.3815 20.8664 10.068 21.1772 9.75492C21.4563 9.47369 21.7364 9.19332 22.0141 8.9106C22.0471 8.87698 22.072 8.87215 22.1139 8.89162C22.3028 8.97958 22.4904 9.07026 22.6875 9.17658Z" fill="#C84646"/>
<path d="M22.1997 19.0248C22.191 19.0117 22.1852 19.0005 22.1771 18.9913C22.0487 18.847 21.9211 18.7017 21.7837 18.5661C21.7468 18.5297 21.7821 18.5169 21.7986 18.5001C22.0974 18.1974 22.3969 17.8955 22.6965 17.5936C23.2781 17.0073 23.8599 16.4211 24.4416 15.8348C25.2304 15.0399 26.0194 14.2452 26.8075 13.4495C26.8419 13.4148 26.8554 13.4091 26.8805 13.4599C26.9672 13.6351 27.0524 13.811 27.1325 13.9894C27.1496 14.0277 27.1442 14.0508 27.1148 14.0803C26.4425 14.7562 25.7713 15.4331 25.0998 16.1099C24.5341 16.68 23.9686 17.2503 23.4028 17.8202C23.0162 18.2095 22.6292 18.5983 22.2422 18.9871C22.2311 18.9982 22.2188 19.008 22.1997 19.0248Z" fill="white"/>
<path d="M21.2884 8.56064C21.1491 8.7038 21.017 8.84126 20.8829 8.97685C20.4715 9.39317 20.0597 9.80913 19.6473 10.2245C19.1847 10.6905 18.7211 11.1555 18.2584 11.6214C17.6433 12.2407 17.0288 12.8606 16.414 13.4802C16.3704 13.5241 16.3325 13.5195 16.3003 13.4665C16.2255 13.3433 16.1563 13.2169 16.0892 13.0893C16.0725 13.0576 16.0737 13.0381 16.1013 13.0104C16.5883 12.5213 17.0733 12.0303 17.5597 11.5406C17.9242 11.1735 18.2904 10.8081 18.6551 10.4412C18.9717 10.1225 19.2869 9.80231 19.6031 9.48299C19.9568 9.12584 20.3108 8.76893 20.6649 8.41215C20.6816 8.39528 20.6967 8.37196 20.7266 8.38089C20.9139 8.43696 21.1017 8.49241 21.2884 8.56064Z" fill="#C84646"/>
<path d="M27.6323 15.4004C27.6338 15.4245 27.6115 15.4366 27.5965 15.4518C27.1878 15.8647 26.7787 16.2776 26.3692 16.6898C25.9798 17.0821 25.5895 17.4735 25.2 17.8656C25.0068 18.0601 24.8162 18.2574 24.6214 18.4503C24.4047 18.6648 24.1887 18.8801 23.9752 19.0978C23.7152 19.3631 23.4505 19.6235 23.1896 19.8877C23.1409 19.9371 23.093 19.9873 23.0465 20.0388C23.029 20.0583 23.0205 20.0562 23.0058 20.0358C22.9094 19.9025 22.8129 19.7692 22.7138 19.6378C22.6849 19.5996 22.7166 19.5862 22.7345 19.5681C22.9931 19.3066 23.2522 19.0457 23.5114 18.7847C24.0769 18.2151 24.6426 17.6455 25.2081 17.0757C25.7538 16.5259 26.2993 15.9759 26.8449 15.4261C27.0331 15.2365 27.2225 15.0482 27.4093 14.8572C27.445 14.8207 27.4589 14.8212 27.4736 14.8712C27.5224 15.037 27.5734 15.2022 27.6236 15.3675C27.6265 15.3774 27.6289 15.3875 27.6323 15.4004Z" fill="white"/>
<path d="M14.6246 12.8792C14.6711 12.9981 14.7127 13.1101 14.7592 13.2199C14.7751 13.2575 14.7668 13.2804 14.7406 13.3067C14.5017 13.5471 14.2638 13.7886 14.0251 14.0292C13.778 14.2784 13.5301 14.5269 13.2828 14.776C12.7981 15.2644 12.3137 15.753 11.8291 16.2414C11.4877 16.5855 11.1464 16.9295 10.8047 17.2735C10.2418 17.8405 9.67882 18.4075 9.11567 18.9743C8.81318 19.2788 8.51057 19.5831 8.20784 19.8874C8.19656 19.8987 8.18417 19.9089 8.16258 19.9283C8.14369 19.8059 8.13338 19.6916 8.10689 19.5812C8.08395 19.4854 8.11732 19.4286 8.18355 19.3624C8.7299 18.8175 9.27182 18.2679 9.8151 17.7197C10.1968 17.3347 10.5787 16.9498 10.9605 16.5649C11.7994 15.7193 12.6381 14.8735 13.4773 14.0282C13.8448 13.658 14.2133 13.2887 14.5814 12.9192C14.5941 12.9064 14.6078 12.8947 14.6246 12.8792Z" fill="#C84646"/>
<path d="M16.4383 27.7732C18.2446 25.9532 20.0381 24.146 21.8383 22.3322C21.8742 22.458 21.8881 22.5794 21.9096 22.6994C21.9229 22.7743 21.9001 22.8236 21.8464 22.8763C21.5997 23.1186 21.3583 23.3664 21.1143 23.6116C20.9267 23.8002 20.7373 23.9871 20.55 24.1761C20.1462 24.5834 19.7433 24.9918 19.3397 25.3993C18.77 25.9742 18.2 26.5488 17.6299 27.1233C17.449 27.3055 17.2669 27.4864 17.0876 27.6701C17.0559 27.7025 17.0212 27.7119 16.9799 27.7179C16.8068 27.743 16.633 27.7586 16.4383 27.7732Z" fill="white"/>
<path d="M27.8383 16.2926C27.8617 16.4493 27.8827 16.5917 27.9045 16.7341C27.9089 16.7626 27.892 16.7724 27.8741 16.7914C27.549 17.1365 27.2094 17.467 26.8762 17.8039C26.0382 18.6514 25.1979 19.4967 24.3585 20.3428C24.1315 20.5717 23.9033 20.7996 23.6774 21.0297C23.6426 21.0652 23.6265 21.0691 23.6028 21.0202C23.5596 20.9314 23.5135 20.8438 23.4624 20.7594C23.4407 20.7236 23.4505 20.7066 23.475 20.682C23.8767 20.2787 24.2782 19.8752 24.6791 19.471C25.1451 19.0012 25.6102 18.5304 26.0764 18.0607C26.6452 17.4877 27.2148 16.9155 27.784 16.3431C27.7981 16.3288 27.8135 16.3155 27.8383 16.2926Z" fill="white"/>
<path d="M8.01293 18.4542C7.99907 18.3428 8.00373 18.2417 8.00005 18.1411C7.99858 18.1017 8.03035 18.0837 8.05218 18.0615C8.27101 17.8392 8.49119 17.6182 8.71101 17.3968C9.20718 16.897 9.70311 16.397 10.1994 15.8975C10.8435 15.2492 11.4882 14.6015 12.1322 13.953C12.63 13.4517 13.1279 12.9504 13.6238 12.4473C13.8901 12.1771 14.1525 11.9029 14.4166 11.6305C14.424 11.6343 14.4315 11.6382 14.439 11.642C14.439 11.7124 14.4307 11.7841 14.441 11.8528C14.4558 11.9523 14.4137 12.0159 14.347 12.0819C14.0391 12.3865 13.7355 12.6955 13.4304 13.0029C12.8882 13.5491 12.3459 14.0955 11.8036 14.6416C10.9848 15.4661 10.166 16.2907 9.34738 17.1154C8.92064 17.5453 8.49401 17.9755 8.06727 18.4054C8.05304 18.4196 8.03746 18.4324 8.01293 18.4542Z" fill="#C84646"/>
<path d="M15.77 12.2639C15.728 12.1177 15.7031 11.9781 15.6818 11.8375C15.6783 11.8139 15.6898 11.7993 15.7051 11.784C16.399 11.0863 17.0928 10.3885 17.7864 9.69029C18.1405 9.33375 18.494 8.97648 18.8478 8.61945C19.008 8.4578 19.1688 8.2969 19.3275 8.13377C19.3565 8.10412 19.3844 8.09321 19.4243 8.10028C19.5447 8.12199 19.6655 8.14146 19.7862 8.16193C19.7994 8.16417 19.8183 8.15958 19.8218 8.17806C19.8249 8.19419 19.8084 8.20225 19.7985 8.21218C19.6333 8.37791 19.4673 8.54303 19.3025 8.70914C18.8555 9.15983 18.4091 9.61139 17.962 10.0621C17.4559 10.5723 16.9491 11.0818 16.4428 11.592C16.2377 11.7987 16.0338 12.0065 15.8289 12.2136C15.8133 12.2293 15.7951 12.2427 15.77 12.2639Z" fill="#C84646"/>
<path d="M15.1004 9.58918C15.0594 9.69525 14.9843 9.78184 14.9363 9.88406C14.91 9.93988 14.8721 9.99124 14.8528 10.0492C14.7962 10.2184 14.6626 10.3243 14.5456 10.4432C14.1392 10.8559 13.731 11.2668 13.3229 11.6778C12.9568 12.0465 12.5894 12.4138 12.2233 12.7825C11.9518 13.0561 11.6822 13.3317 11.4107 13.6054C11.0974 13.9214 10.7829 14.236 10.4695 14.5517C9.88698 15.1388 9.30494 15.7263 8.72241 16.3134C8.52002 16.5175 8.31713 16.721 8.11437 16.9245C8.10444 16.9345 8.09327 16.9431 8.07402 16.9495C8.10419 16.818 8.0604 16.6749 8.17852 16.5587C8.55903 16.184 8.93241 15.8021 9.3085 15.4228C9.87766 14.849 10.4468 14.275 11.0161 13.7012C11.5918 13.1211 12.1678 12.5413 12.7433 11.9612C13.3175 11.3825 13.8912 10.8032 14.4656 10.2246C14.6766 10.0121 14.8887 9.80107 15.1004 9.58918Z" fill="#C84646"/>
<path d="M24.0347 22.0893C24.0101 22.0104 23.9875 21.9319 23.9604 21.8551C23.9475 21.8185 23.9742 21.8067 23.9914 21.7893C24.2237 21.5541 24.4566 21.3193 24.6894 21.0844C25.1924 20.5768 25.6955 20.0692 26.1987 19.5618C26.744 19.0121 27.2898 18.4629 27.8347 17.9129C27.8822 17.865 27.9244 17.8118 27.9689 17.7609C27.9771 17.7651 27.9853 17.7692 27.9935 17.7734C27.9935 17.8379 27.9842 17.9043 27.9956 17.9667C28.0158 18.0769 27.9637 18.1445 27.8922 18.2164C27.0066 19.1055 26.1233 19.997 25.2391 20.8876C24.8572 21.2724 24.4746 21.6566 24.092 22.0408C24.0751 22.0578 24.0617 22.0797 24.0347 22.0893Z" fill="white"/>
<path d="M8.41171 15.2499C8.44323 15.1204 8.47537 15.0183 8.56344 14.9308C9.09384 14.4041 9.61847 13.8715 10.1449 13.3408C10.6802 12.8013 11.2153 12.2616 11.7505 11.7219C12.0379 11.4321 12.3248 11.1418 12.6126 10.8526C12.9305 10.5329 13.2499 10.2147 13.5675 9.8946C14.0211 9.43746 14.4747 8.98032 14.9256 8.52045C14.9996 8.44503 15.0948 8.44242 15.1801 8.40644C15.1836 8.41178 15.1869 8.41699 15.1903 8.42232C12.9349 10.694 10.6795 12.9657 8.41171 15.2499Z" fill="#C84646"/>
<path d="M24.2459 23.2475C24.2391 23.1713 24.2338 23.0959 24.2247 23.0208C24.2204 22.9858 24.2408 22.9686 24.2613 22.948C25.2211 21.9817 26.1807 21.0152 27.1404 20.0487C27.3937 19.7937 27.6473 19.5389 27.9003 19.2834C27.9072 19.2765 27.9095 19.2649 27.9139 19.2556C27.9201 19.2594 27.9262 19.263 27.9322 19.2667C27.9187 19.3715 27.9061 19.4766 27.8904 19.5812C27.8883 19.595 27.8721 19.6078 27.8607 19.6192C27.1342 20.3512 26.4074 21.0827 25.6809 21.8148C25.4103 22.0874 25.1408 22.3613 24.8703 22.6343C24.6794 22.8268 24.4881 23.0187 24.2964 23.2104C24.2827 23.224 24.2732 23.2447 24.2459 23.2475Z" fill="white"/>
<path d="M21.7489 24.0652C21.7066 24.2188 21.6346 24.3591 21.5617 24.4993C21.4832 24.6505 21.3803 24.7803 21.2593 24.9001C20.8671 25.2888 20.4804 25.6831 20.0913 26.0752C19.818 26.3506 19.5439 26.6251 19.2713 26.9012C19.2175 26.9558 19.1591 27.0018 19.0913 27.0376C18.9268 27.1243 18.7603 27.2068 18.5885 27.2775C18.5712 27.2846 18.5533 27.3067 18.5303 27.2873L18.5319 27.288C19.1866 26.6282 19.8412 25.9682 20.496 25.3084C20.8974 24.9038 21.299 24.4995 21.7007 24.0953C21.7134 24.0825 21.7283 24.0718 21.7423 24.0601C21.7445 24.0619 21.7466 24.0636 21.7489 24.0652Z" fill="white"/>
<path d="M15.7267 10.6765C15.7595 10.5054 15.8089 10.3459 15.8755 10.1935C15.9075 10.12 15.981 10.0746 16.0369 10.018C16.4427 9.60767 16.8497 9.19866 17.2563 8.78915C17.5052 8.53844 17.7542 8.28772 18.0023 8.03614C18.0273 8.01071 18.0524 7.9988 18.0882 8.00017C18.1679 8.00314 18.2476 8.0019 18.3273 8.00339C18.3407 8.00364 18.3591 7.9988 18.3663 8.01381C18.3742 8.03044 18.3565 8.03887 18.3471 8.0483C17.8797 8.51896 17.412 8.98913 16.9448 9.45992C16.5922 9.81521 16.2409 10.172 15.8878 10.5268C15.8377 10.577 15.7911 10.632 15.7267 10.6765Z" fill="#C84646"/>
<path d="M27.5864 20.975C27.5593 21.1088 27.5127 21.2133 27.4195 21.3061C26.808 21.9149 26.2027 22.5297 25.5949 23.1421C25.1391 23.6014 24.6827 24.0601 24.2269 24.5195C24.2099 24.5368 24.197 24.5583 24.1734 24.5719C24.184 24.4874 24.1746 24.4053 24.2437 24.3367C24.621 23.962 24.9942 23.583 25.3688 23.2057C26.0967 22.4722 26.8244 21.739 27.5523 21.0057C27.5608 20.9971 27.5704 20.9894 27.5864 20.975Z" fill="white"/>
<path d="M9.33757 13.076C9.3778 12.965 9.43447 12.8605 9.51568 12.7781C10.2049 12.0785 10.8974 11.382 11.5892 10.685C11.9783 10.2929 12.3678 9.9013 12.7579 9.51016C12.8416 9.4263 12.9534 9.38734 13.0489 9.32197C13.0539 9.3278 13.0591 9.33363 13.0641 9.33946C12.9992 9.40074 12.9328 9.46041 12.8698 9.52356C12.5842 9.8095 12.2992 10.0959 12.0146 10.383C11.7331 10.667 11.453 10.9525 11.171 11.2361C10.8149 11.5943 10.4575 11.9511 10.101 12.3088C9.85067 12.56 9.60105 12.812 9.35094 13.0636C9.34665 13.0679 9.3415 13.0713 9.33671 13.0751L9.33757 13.076Z" fill="#C84646"/>
<path d="M26.6701 23.1505C26.5567 23.4014 26.3518 23.5758 26.1649 23.7648C25.5081 24.4283 24.8501 25.0908 24.1926 25.7537C24.0076 25.9402 23.8232 26.1273 23.6373 26.3127C23.6231 26.3269 23.6147 26.3604 23.5818 26.3441L23.5831 26.3444C23.6621 26.1257 23.8403 25.9875 23.9944 25.8305C24.3021 25.5169 24.613 25.2064 24.9223 24.8944C25.4893 24.323 26.0561 23.7514 26.6235 23.1805C26.636 23.1678 26.6436 23.1414 26.671 23.1516L26.6701 23.1505Z" fill="white"/>
<path d="M21.7423 24.0601C21.7468 24.0562 21.7513 24.0523 21.7559 24.0485C21.7593 24.0565 21.7581 24.0626 21.7489 24.0652C21.7466 24.0636 21.7445 24.0619 21.7423 24.0601Z" fill="white"/>
<path d="M23.5818 26.3441C23.5887 26.3445 23.5915 26.3486 23.5896 26.3548C23.5887 26.3574 23.5847 26.359 23.5821 26.3611C23.5826 26.3556 23.5828 26.3499 23.5831 26.3444L23.5818 26.3441Z" fill="white"/>
<path d="M9.33671 13.0751L9.33352 13.0781L9.33757 13.076L9.33671 13.0751Z" fill="#C84646"/>
<path d="M26.671 23.1516C26.6705 23.1496 26.6699 23.1476 26.6695 23.1456L26.6709 23.1444L26.6701 23.1505L26.671 23.1516Z" fill="white"/>
<path d="M18.5303 27.2873C18.5323 27.2898 18.5344 27.2925 18.5363 27.295C18.5338 27.2962 18.5312 27.2973 18.5286 27.2986C18.5298 27.2951 18.5309 27.2915 18.5319 27.288L18.5303 27.2873Z" fill="white"/>
</svg>
