<svg width="36" height="36" viewBox="0 0 36 36" fill="none" xmlns="http://www.w3.org/2000/svg">
<rect width="36" height="36" fill="#F2F3F7"/>
<path d="M9.66699 11.3333C9.66699 10.4129 10.4132 9.66666 11.3337 9.66666H24.667C25.5875 9.66666 26.3337 10.4129 26.3337 11.3333V24.6667C26.3337 25.5871 25.5875 26.3333 24.667 26.3333H11.3337C10.4132 26.3333 9.66699 25.5871 9.66699 24.6667V11.3333Z" fill="url(#paint0_linear_7075_804)"/>
<path d="M19.5747 17.4602C19.542 17.4602 19.5093 17.4633 19.4771 17.4696L14.3219 18.4781C14.2305 18.4976 14.147 18.5454 14.0825 18.6151C14.018 18.6848 13.9756 18.7731 13.9608 18.8684L13.0087 24.3654C12.9948 24.4173 12.9983 24.4724 13.0186 24.5219C13.0389 24.5715 13.0749 24.6124 13.1207 24.638C13.1664 24.6636 13.2193 24.6724 13.2705 24.663C13.3217 24.6535 13.3683 24.6264 13.4027 24.586L15.5366 21.8544C15.6033 21.7722 15.6967 21.7179 15.7993 21.7017L18.9345 21.1079C19.0213 21.0944 19.1016 21.0525 19.1636 20.9884C19.2257 20.9243 19.2662 20.8413 19.2792 20.7516L19.8045 17.7486C19.8091 17.7138 19.8067 17.6784 19.7974 17.6447C19.7881 17.6109 19.7722 17.5795 19.7506 17.5524C19.729 17.5254 19.7023 17.5032 19.672 17.4873C19.6417 17.4714 19.6086 17.4622 19.5747 17.4602Z" fill="white"/>
<path d="M23.6016 12.1667C23.5688 12.1667 23.5362 12.1699 23.504 12.1762L15.0822 13.8463C14.9927 13.8698 14.9113 13.9189 14.8475 13.9879C14.7836 14.0569 14.7398 14.143 14.7211 14.2366L14.2123 17.2226C14.2068 17.2618 14.2102 17.3018 14.2222 17.3394C14.2343 17.377 14.2547 17.4111 14.2818 17.4391C14.3089 17.4672 14.342 17.4882 14.3783 17.5007C14.4147 17.5132 14.4534 17.5167 14.4913 17.511L22.9614 15.8144C23.0482 15.8009 23.1285 15.759 23.1905 15.6949C23.2525 15.6308 23.2931 15.5478 23.3061 15.4581L23.8314 12.4551C23.836 12.4203 23.8336 12.385 23.8243 12.3512C23.815 12.3174 23.7991 12.286 23.7775 12.259C23.7559 12.2319 23.7292 12.2097 23.6989 12.1938C23.6686 12.1779 23.6355 12.1687 23.6016 12.1667Z" fill="white"/>
<defs>
<linearGradient id="paint0_linear_7075_804" x1="8.41699" y1="26.75" x2="27.5837" y2="9.25" gradientUnits="userSpaceOnUse">
<stop stop-color="#2D327B"/>
<stop offset="0.06" stop-color="#35307C"/>
<stop offset="0.15" stop-color="#492C7D"/>
<stop offset="0.26" stop-color="#6C2480"/>
<stop offset="0.39" stop-color="#9B1A84"/>
<stop offset="0.53" stop-color="#D70C89"/>
<stop offset="0.57" stop-color="#EA088B"/>
<stop offset="0.66" stop-color="#EB1973"/>
<stop offset="0.89" stop-color="#EE403A"/>
<stop offset="1" stop-color="#EF4F24"/>
</linearGradient>
</defs>
</svg>
