<svg width="36" height="36" viewBox="0 0 36 36" fill="none" xmlns="http://www.w3.org/2000/svg">
<rect width="36" height="36" fill="#F2F3F7"/>
<path fill-rule="evenodd" clip-rule="evenodd" d="M9.67599 13.2124L17.9283 17.1511V26.9003L9.67599 22.8146V13.2124Z" fill="#0098DA"/>
<path fill-rule="evenodd" clip-rule="evenodd" d="M26.3247 13.2124L18.0003 17.1421V26.9003L26.3247 22.8146V13.2124Z" fill="#ED3237"/>
<path fill-rule="evenodd" clip-rule="evenodd" d="M9.67599 13.2124L18.0003 17.1421L26.3247 13.2124L17.8623 9.07571L9.67599 13.2124Z" fill="#30C56F"/>
<path fill-rule="evenodd" clip-rule="evenodd" d="M15.1686 18.6659C15.1146 18.591 14.1636 16.7971 14.0436 16.5661C13.9657 16.4221 13.9417 16.3471 13.8127 16.2841C13.6837 16.2211 13.5397 16.4131 13.4197 16.5211C13.0387 16.8661 12.6548 17.2081 12.2738 17.553C11.8928 17.895 11.5088 18.24 11.1279 18.582C11.0079 18.6899 10.9779 18.6839 10.9779 18.8819C10.9779 19.1009 11.1069 19.2299 11.2389 19.2929C11.3319 19.3379 11.5058 19.1399 11.5898 19.0649C11.9108 18.7769 12.2288 18.489 12.5498 18.201C12.5918 18.165 13.7767 17.0821 13.8307 17.0581C13.8787 17.1271 13.9447 17.2681 13.9926 17.3551C14.3706 18.06 14.7456 18.7679 15.1236 19.4729C15.5015 20.1778 15.8795 20.8858 16.2575 21.5907C16.3115 21.6927 16.3595 21.8127 16.4645 21.8637C16.5394 21.8997 16.5904 21.8937 16.6324 21.8637C16.6834 21.8247 16.7044 21.7557 16.7044 21.6507C16.7044 21.4767 16.5634 21.2727 16.4944 21.1437C16.2845 20.7508 16.0775 20.3608 15.8675 19.9678C15.8375 19.8809 15.8585 19.7249 15.8555 19.6289C15.8555 19.1669 15.8555 18.7049 15.8525 18.24C15.8525 18.015 15.8585 17.772 15.8525 17.547C15.8375 17.1451 15.6065 17.0791 15.4205 16.9891C15.0996 16.8331 15.1716 17.3101 15.1716 17.592C15.1716 17.952 15.1716 18.309 15.1716 18.6659H15.1686Z" fill="#FEFEFE"/>
<path fill-rule="evenodd" clip-rule="evenodd" d="M11.3619 19.8119C11.7728 19.4399 12.1838 19.0679 12.5948 18.6959C13.0057 18.324 13.4137 17.949 13.8247 17.577C14.2386 18.354 14.6496 19.1279 15.0636 19.9048C15.4775 20.6818 15.8915 21.4557 16.3025 22.2297C16.3025 22.5476 16.3025 22.8656 16.3055 23.1836C16.3055 23.4986 16.3055 23.8195 16.3055 24.1345C16.2275 24.5365 16.0415 24.6895 15.7595 24.6115C15.1146 24.2965 14.4726 23.9815 13.8277 23.6665C13.1827 23.3516 12.5378 23.0366 11.8958 22.7216C11.6258 22.4936 11.4429 22.1577 11.3469 21.7107C11.3469 21.3957 11.3499 21.0778 11.3529 20.7628C11.3529 20.4478 11.3529 20.1298 11.3589 19.8119H11.3619ZM13.4137 20.3548C13.6897 20.4898 13.9657 20.6248 14.2416 20.7598C14.3826 20.8288 14.4996 21.0478 14.4996 21.2457C14.4996 21.8337 14.4996 22.4156 14.5026 23.0006C14.5026 23.1986 14.3886 23.3036 14.2446 23.2346C13.9687 23.0996 13.6927 22.9646 13.4167 22.8296C13.2757 22.7606 13.1587 22.5416 13.1587 22.3437C13.1587 21.7587 13.1587 21.1737 13.1557 20.5888C13.1557 20.3908 13.2727 20.2858 13.4137 20.3548Z" fill="#FEFEFE"/>
<path fill-rule="evenodd" clip-rule="evenodd" d="M12.7148 13.6923C13.3867 14.0223 14.0616 14.3463 14.7456 14.6643C15.4295 14.9852 16.1165 15.3002 16.8094 15.6122C16.9414 15.6722 17.1424 15.6722 17.2624 15.6152C18.2913 15.1232 19.3112 14.6343 20.3221 14.1543C21.3211 13.6773 22.314 13.2124 23.2919 12.7594C23.4059 12.7084 23.3909 12.6154 23.2679 12.5494C22.605 12.2105 21.942 11.8715 21.2791 11.5385C20.6191 11.2055 19.9592 10.8786 19.3052 10.5486C19.1822 10.4856 18.9873 10.4826 18.8703 10.5366C17.8623 11.0196 16.8454 11.5055 15.8225 11.9915C14.7936 12.4804 13.7527 12.9724 12.7058 13.4704C12.5858 13.5274 12.5888 13.6264 12.7148 13.6893V13.6923ZM19.8872 11.0496C19.9472 11.0796 19.9532 11.1276 19.8962 11.1545C19.8392 11.1815 19.7432 11.1785 19.6832 11.1485C19.6232 11.1186 19.6172 11.0706 19.6742 11.0436C19.7312 11.0166 19.8272 11.0196 19.8872 11.0496ZM20.2741 11.2805C20.7421 11.5145 21.2161 11.7485 21.687 11.9855C21.726 12.0035 21.729 12.0335 21.693 12.0515C21.657 12.0665 21.6 12.0635 21.561 12.0455C21.0871 11.8085 20.6161 11.5745 20.1482 11.3405C20.1092 11.3225 20.1092 11.2925 20.1422 11.2745C20.1752 11.2565 20.2352 11.2595 20.2741 11.2775V11.2805ZM22.182 12.2015C22.245 12.2345 22.248 12.2795 22.194 12.3065C22.137 12.3335 22.041 12.3275 21.981 12.2975C21.921 12.2675 21.915 12.2195 21.972 12.1955C22.029 12.1685 22.122 12.1715 22.185 12.2045L22.182 12.2015ZM15.5705 14.2683C15.7595 14.3583 15.7715 14.4993 15.5945 14.5833C15.4175 14.6673 15.1176 14.6643 14.9286 14.5773C14.7396 14.4873 14.7306 14.3463 14.9076 14.2623C15.0846 14.1783 15.3815 14.1813 15.5705 14.2713V14.2683ZM14.2896 13.2604C14.8506 13.5364 15.4175 13.8063 15.9875 14.0763C16.5604 14.3463 17.1334 14.6103 17.7064 14.8773C17.8203 14.9282 18.0003 14.9312 18.1023 14.8833C18.8163 14.5413 19.5272 14.2023 20.2322 13.8663C20.9311 13.5334 21.63 13.2034 22.32 12.8794C22.419 12.8314 22.41 12.7504 22.302 12.6964C21.741 12.4144 21.1831 12.1385 20.6251 11.8625C20.0702 11.5865 19.5122 11.3105 18.9603 11.0376C18.8523 10.9836 18.6783 10.9806 18.5793 11.0286C17.8713 11.3675 17.1604 11.7065 16.4465 12.0485C15.7295 12.3904 15.0066 12.7324 14.2836 13.0774C14.1786 13.1284 14.1816 13.2124 14.2926 13.2664L14.2896 13.2604Z" fill="#FEFEFE"/>
<path fill-rule="evenodd" clip-rule="evenodd" d="M19.7642 22.6706C19.7162 22.4696 19.7222 22.5236 20.1452 22.3137C20.2831 22.2447 20.4631 22.1367 20.6221 22.1007C20.6671 22.2987 20.6041 22.2747 20.2741 22.4426L19.7672 22.6736L19.7642 22.6706ZM19.6892 22.0707C19.5512 22.0707 19.3862 21.6567 19.3862 21.6567C19.8362 21.4767 20.0402 21.4317 20.2171 21.4077C20.3011 21.4077 20.4961 21.5967 20.4961 21.6867C20.3281 21.8637 19.8452 22.0707 19.6862 22.0707H19.6892ZM23.8859 20.5978C23.8859 20.4418 24.0478 20.4088 24.2758 20.2948C24.3898 20.2378 24.6508 20.0818 24.7678 20.0728C24.8158 20.3008 24.5818 20.3308 24.1498 20.5498C24.1168 20.5648 23.8889 20.7118 23.8889 20.5978H23.8859ZM24.0028 19.9798C24.0028 19.8029 24.0028 19.6679 24.1288 19.5089C24.2458 19.3649 24.8548 18.9539 25.0048 18.9539C25.0048 19.2989 24.9358 19.4759 24.8188 19.5899C24.7108 19.6949 24.1588 19.9798 24.0028 19.9798ZM20.1541 19.8389C20.2681 19.4129 20.4001 18.555 20.6131 18.354C21.2341 17.76 22.446 17.2771 23.2799 16.9681C23.5289 16.8871 23.6309 16.8511 23.7119 16.8931C23.8769 16.9801 24.1498 17.625 24.2398 17.814C23.7089 18.096 20.5051 19.7459 20.1511 19.8419L20.1541 19.8389ZM23.9158 16.5811C23.3999 16.2781 20.6371 17.715 20.2471 18.315C20.0102 18.6809 19.8572 19.5089 19.7192 19.9318L19.5812 19.8089C18.7383 20.2648 18.7323 20.6938 19.2422 20.6938C19.1762 20.9398 18.9572 21.0088 18.9572 21.9327C18.9572 22.5356 19.0322 23.7205 19.1702 24.3145C19.3322 24.3145 20.2021 23.9395 20.3011 23.8075C20.3551 23.7355 20.3821 23.6276 20.3821 23.4326C21.0001 23.2886 24.0748 21.5217 24.2488 21.6027C24.3118 21.6327 24.1918 21.8127 24.3628 21.8367C24.4798 21.8547 25.0168 21.5547 25.1398 21.4947C25.3647 21.3837 25.4577 21.3297 25.4937 21.2067C25.5387 21.0538 25.5927 20.3578 25.5807 19.8988C25.5687 19.4609 25.5627 17.961 25.1008 17.838C25.1338 17.712 25.4097 17.571 25.4097 17.1961L25.3317 17.1301C25.2627 17.1031 24.7528 17.1751 24.6598 17.3311C24.6358 17.3701 24.5848 17.511 24.5728 17.556C24.4468 17.2501 24.1828 16.7641 23.9128 16.5871L23.9158 16.5811Z" fill="#FEFEFE"/>
<path fill-rule="evenodd" clip-rule="evenodd" d="M19.7402 19.0499C19.7402 19.0499 19.7462 19.0409 19.7462 19.0439C19.7462 19.0439 19.7372 19.0499 19.7402 19.0499Z" fill="#FEFEFE"/>
<path fill-rule="evenodd" clip-rule="evenodd" d="M17.8203 17.2441L9.66699 13.4134V13.2034L9.77498 13.1494L17.9403 16.9861L17.9643 16.9951L17.9853 16.9861L26.1807 13.1284L26.3337 13.2034V13.3714L18.1083 17.2441V26.8553L17.9643 26.9243L17.8203 26.8553V17.2441Z" fill="#FEFEFE"/>
</svg>
