<svg width="36" height="36" viewBox="0 0 36 36" fill="none" xmlns="http://www.w3.org/2000/svg">
<rect width="36" height="36" fill="#F2F3F7"/>
<path d="M16.8288 19.9662C16.8288 19.6907 16.8245 19.4149 16.8297 19.1394C16.8397 18.6178 16.9945 18.1365 17.2965 17.715C17.6031 17.2872 18.006 16.9637 18.5101 16.7951C19.0204 16.6245 19.5386 16.6054 20.0614 16.7649C20.4729 16.8907 20.8313 17.0964 21.1343 17.4012C21.2739 17.5417 21.3335 17.5453 21.4728 17.4042C21.745 17.1284 22.0633 16.9197 22.4268 16.7971C22.7916 16.6743 23.1684 16.6265 23.5604 16.675C24.1074 16.7427 24.578 16.9589 24.9784 17.3287C25.2843 17.6113 25.5041 17.9534 25.6385 18.3495C25.7234 18.6003 25.7747 18.8562 25.7762 19.1217C25.7803 19.7249 26.0425 20.1874 26.5598 20.4915C26.9269 20.7074 27.3223 20.7559 27.7412 20.6419C28.1369 20.5343 28.4385 20.3095 28.6501 19.966C28.9211 19.526 28.9567 19.0578 28.7706 18.5779C28.6261 18.2054 28.3705 17.928 28.0061 17.759C27.7863 17.657 27.5557 17.5977 27.3098 17.5947C27.0141 17.5913 26.7601 17.3178 26.7757 17.0228C26.7911 16.7337 27.0447 16.5019 27.3105 16.4973C27.8808 16.4876 28.3979 16.6514 28.859 16.973C29.3115 17.2884 29.6321 17.7155 29.8299 18.2353C30.0024 18.6882 30.0416 19.1537 29.9571 19.6245C29.8719 20.0995 29.6632 20.5236 29.346 20.8909C29.0097 21.2802 28.6005 21.5623 28.1036 21.7012C27.2296 21.9457 26.4184 21.8064 25.696 21.2526C25.2549 20.9143 24.9551 20.4645 24.7849 19.9343C24.6972 19.6608 24.6811 19.3737 24.6621 19.0886C24.6256 18.5441 24.3512 18.1551 23.8717 17.9129C23.4627 17.7062 23.0499 17.725 22.6355 17.9176C22.4241 18.016 22.275 18.1861 22.103 18.3302C21.9222 18.4816 21.7175 18.5611 21.4842 18.6026C21.1585 18.6602 20.876 18.5706 20.6066 18.4086C20.5207 18.357 20.4421 18.2883 20.373 18.2154C20.0303 17.8539 19.6046 17.7055 19.1238 17.786C18.6119 17.8714 18.2473 18.173 18.0484 18.662C17.9731 18.8469 17.95 19.0377 17.9514 19.2359C17.9552 19.7872 17.9598 20.3385 17.9491 20.8896C17.9444 21.135 17.8367 21.3332 17.5934 21.4379C17.3099 21.5601 16.9501 21.3892 16.8644 21.0933C16.8365 20.997 16.8273 20.9025 16.8279 20.8044C16.8293 20.525 16.8288 20.2456 16.8288 19.9662Z" fill="#EC302E"/>
<path d="M6.0012 19.9687C6.0012 19.7158 6.00346 19.4627 6.00052 19.2099C5.99734 18.9248 6.03496 18.6427 6.13443 18.379C6.43353 17.5848 6.96308 17.0128 7.79489 16.769C8.71009 16.501 9.53375 16.6974 10.236 17.333C10.5246 17.5943 10.5296 17.5109 10.7408 17.3183C11.0641 17.0233 11.438 16.8304 11.8631 16.723C12.2218 16.6324 12.5841 16.6174 12.9369 16.6999C13.7427 16.8882 14.3533 17.3419 14.7152 18.1025C14.865 18.4173 14.9427 18.7508 14.9472 19.0968C14.9552 19.7007 14.9534 20.3048 14.9486 20.9088C14.9459 21.2576 14.7154 21.4635 14.3984 21.4719C14.0914 21.4799 13.8533 21.2268 13.8521 20.8993C13.8501 20.3331 13.8553 19.7668 13.8501 19.2006C13.8455 18.7089 13.6443 18.3119 13.2455 18.0212C12.9154 17.7805 12.5365 17.7218 12.1491 17.7925C11.879 17.8417 11.6388 17.9827 11.4405 18.1859C11.2178 18.4141 10.9601 18.5661 10.6293 18.6055C10.2418 18.6518 9.9185 18.5394 9.63798 18.2872C9.44425 18.1132 9.25459 17.9416 9.00171 17.8524C8.70715 17.7484 8.4128 17.737 8.11824 17.8324C7.57963 18.0064 7.26399 18.3846 7.14593 18.9316C7.12781 19.0155 7.12917 19.1043 7.12871 19.1906C7.12713 19.753 7.13053 20.3156 7.12577 20.878C7.12373 21.1148 7.03762 21.3115 6.80922 21.4214C6.44441 21.5965 6.01117 21.3364 6.00346 20.9315C5.99734 20.6107 6.0012 20.2896 6.0012 19.9687Z" fill="#EC302E"/>
<path d="M16.467 19.0789C16.467 19.6902 16.467 20.3014 16.467 20.9127C16.467 21.1726 16.3478 21.3568 16.1105 21.4631C15.8219 21.5923 15.4426 21.4146 15.3558 21.1098C15.3247 21.0008 15.3089 20.8907 15.3091 20.7758C15.3114 19.625 15.3091 18.4744 15.3105 17.3235C15.3107 17.1037 15.3467 16.8959 15.5425 16.7514C15.6907 16.6419 15.9136 16.5932 16.0915 16.6659C16.3641 16.7772 16.4692 16.9859 16.4683 17.2682C16.4661 17.8719 16.467 18.4753 16.467 19.0789Z" fill="#EC302E"/>
<path d="M16.5207 15.6474C16.5372 15.9832 16.2526 16.2703 15.8901 16.2735C15.5459 16.2764 15.2552 15.9717 15.2602 15.6254C15.2647 15.2797 15.5547 15.0043 15.9007 15C16.1912 14.9964 16.5495 15.255 16.5207 15.6474Z" fill="#2F2D20"/>
<path d="M27.3266 18.5301C27.7048 18.5065 27.9629 18.8376 27.9615 19.1453C27.9599 19.5029 27.6955 19.7773 27.3402 19.7818C26.9826 19.7863 26.7057 19.5201 26.6987 19.167C26.6919 18.8306 26.9668 18.5077 27.3266 18.5301Z" fill="#2F2D20"/>
</svg>
