<svg width="36" height="36" viewBox="0 0 36 36" fill="none" xmlns="http://www.w3.org/2000/svg">
<rect width="36" height="36" fill="#F2F3F7"/>
<path d="M8.51456 13.2949H6V12.905C7.69986 12.904 8.6745 12.9035 8.6745 12.9035C8.6745 12.9035 8.68399 13.1929 8.68899 13.2874C8.63101 13.2904 8.57254 13.2949 8.51456 13.2949Z" fill="#363334"/>
<path d="M9.17031 23.3761V24.2123C8.58803 24.3108 8.37861 24.4877 8.3961 24.8521C8.4126 25.2054 8.64651 25.3894 9.15132 25.4318V26.269H6V25.8597H8.79395C8.78895 25.8142 8.79145 25.8022 8.78645 25.7982C8.76846 25.7827 8.74997 25.7637 8.72848 25.7562C8.29914 25.6068 8.04023 25.3089 8.02924 24.8536C8.01824 24.3997 8.24516 24.0783 8.68099 23.9209C8.78346 23.8839 8.83544 23.8299 8.77696 23.7095C8.33662 23.567 8.04873 23.2816 8.03074 22.7953C8.01125 22.269 8.32063 21.9721 8.77846 21.8057C8.80395 21.7232 8.81594 21.6518 8.77846 21.5828C8.26515 21.3924 8.00425 21.0725 8.01924 20.6171C8.03624 20.1103 8.33662 19.8174 8.79495 19.6715C8.79795 19.586 8.82544 19.5106 8.76096 19.4446C8.31363 19.2986 8.03424 18.9968 8.02724 18.5179C8.02024 18.0121 8.31963 17.7072 8.78096 17.5533C8.80745 17.4738 8.81644 17.4024 8.76846 17.3314C8.36861 17.2164 8.08322 16.9695 8.02174 16.5502C7.93228 15.9414 8.27415 15.592 8.88642 15.3831C8.56404 15.2232 8.29064 15.1112 8.14869 14.8398C8.00575 14.5664 7.97676 14.2825 8.10071 13.9971C8.15419 13.8742 8.60552 13.5803 8.75097 13.5533C8.80095 13.7032 8.82294 13.7752 8.85093 13.8032C8.31363 13.9332 8.23366 14.313 8.49456 14.6969C8.64201 14.9133 8.86343 14.9603 9.10334 14.9678C9.12033 15.1682 9.14232 15.3686 9.15282 15.5695C9.15782 15.6705 9.24828 15.6905 9.29476 15.7515C9.12833 15.7725 8.95889 15.7795 8.79645 15.8174C8.53755 15.8779 8.35912 16.1503 8.37811 16.4257C8.3966 16.6986 8.58803 16.917 8.85343 16.959C8.94989 16.9745 9.04886 16.9745 9.15882 16.982V17.8812C8.58453 17.9891 8.38411 18.1576 8.3961 18.5214C8.4076 18.8763 8.62352 19.0487 9.15732 19.1217V20.0089C8.55854 20.1458 8.36961 20.3088 8.3901 20.6676C8.4091 21.009 8.64901 21.1904 9.15332 21.2329V22.1396C8.59853 22.242 8.3921 22.412 8.3956 22.7598C8.3986 23.1222 8.60702 23.2906 9.17031 23.3761Z" fill="#363334"/>
<path d="M9.77857 15.2537H9.77207C9.77357 15.2801 9.77607 15.2791 9.77857 15.2537Z" fill="#3A3738"/>
<path d="M9.37324 15.7365C9.32825 15.736 9.28377 15.735 9.23929 15.7345C9.19281 15.6735 9.10234 15.6535 9.09734 15.5525C9.08735 15.3516 9.06485 15.1512 9.04786 14.9508C9.34625 14.8683 9.62115 14.7568 9.65463 14.3915C9.69562 13.9416 8.74597 13.7867 8.74597 13.7867L8.54605 12.937C8.54605 12.937 10.7567 12.4997 11.6749 12.3003C14.3334 11.722 16.9919 11.1467 19.6509 10.5719C21.9285 10.0796 24.2067 9.58928 26.4843 9.09746C26.6053 9.07147 26.7242 9.03699 26.8692 9C27.9118 13.3204 28.9519 17.6318 30 21.9741C23.7868 23.3231 17.5937 24.6676 11.376 26.0171C11.3165 25.7452 11.2605 25.4878 11.1996 25.2089C11.5814 25.09 11.9398 24.9305 11.8323 24.4437C11.7279 23.9699 11.3535 23.9569 10.9402 24.0294C10.8842 23.7355 10.8322 23.4626 10.7817 23.1967C11.3755 22.8998 11.4879 22.7478 11.397 22.3855C11.3145 22.0576 11.1426 21.9766 10.5143 21.9856C10.4533 21.6962 10.3914 21.3998 10.3299 21.109C10.8787 20.874 11.0266 20.6861 10.9571 20.3308C10.8927 20.0014 10.6738 19.8914 10.068 19.8919C10.016 19.653 9.96202 19.4106 9.91104 19.1682C9.90104 19.1207 9.90204 19.0712 9.89804 19.0262C10.4728 18.7618 10.5968 18.6074 10.5178 18.262C10.4353 17.9017 10.2714 17.8167 9.64963 17.8252C9.54967 17.5528 9.50619 17.2609 9.45021 16.9565C9.66963 16.8556 9.92453 16.8036 10.033 16.5617C10.092 16.4302 10.079 16.2828 10.048 16.1428C9.98651 15.8644 9.79708 15.753 9.36824 15.7365H9.37474H9.37324Z" fill="#CE393A"/>
<path d="M26.4133 17.4698C26.045 17.5588 25.6886 17.6603 25.3028 17.7092C25.1088 16.8795 24.9204 16.0718 24.7315 15.2647C24.6405 14.8758 24.5565 14.4854 24.4551 14.0996C24.3641 13.7537 24.2607 13.6967 23.9128 13.7742C23.5959 13.8447 23.28 13.9197 22.9651 13.9966C22.6598 14.0711 22.5803 14.1811 22.6463 14.4954C22.7727 15.0977 22.9142 15.6965 23.0506 16.2963C23.1886 16.9035 23.3285 17.5108 23.4729 18.1421C23.0991 18.229 22.7372 18.3135 22.3344 18.4075C22.2344 17.9806 22.1355 17.5643 22.039 17.1469C21.8611 16.3777 21.6906 15.6065 21.5052 14.8393C21.4017 14.411 21.3387 14.3775 20.9184 14.463C20.6415 14.5194 20.3666 14.5869 20.0912 14.6494C19.6709 14.7448 19.5989 14.8538 19.6949 15.2826C19.8128 15.8099 19.9398 16.3357 20.0622 16.8621C20.1977 17.4448 20.3326 18.0281 20.4661 18.6119C20.4806 18.6749 20.4806 18.7413 20.4896 18.8288C20.1192 18.9113 19.7578 18.9918 19.3695 19.0787C19.232 18.4904 19.0981 17.9272 18.9696 17.3624C18.7682 16.4782 18.5668 15.5945 18.3724 14.7089C18.2329 14.0731 18.3444 13.8992 18.9681 13.7537C19.6644 13.5913 20.3616 13.4313 21.0589 13.2729C21.4567 13.1824 21.5567 13.2174 21.8576 13.5488C21.874 13.1419 22.1429 13.0235 22.4738 12.9525C23.1971 12.7971 23.9158 12.6221 24.6385 12.4652C25.0614 12.3737 25.2663 12.4932 25.3767 12.9165C25.5492 13.5758 25.7046 14.24 25.8576 14.9043C26.0435 15.7145 26.2189 16.5267 26.3984 17.3384C26.4068 17.3774 26.4073 17.4183 26.4133 17.4698Z" fill="#FEFEFE"/>
<path d="M16.782 16.3003C16.6575 15.4811 16.599 15.4401 15.8418 15.6135C15.6659 15.654 15.4894 15.6935 15.2875 15.7395C15.2016 15.3726 15.1206 15.0282 15.0391 14.6809C15.1946 14.5689 15.3675 14.5694 15.5234 14.5314C15.9673 14.4225 16.4151 14.33 16.8619 14.2345C17.2713 14.1466 17.5187 14.281 17.6126 14.6784C17.9175 15.9644 18.2189 17.2514 18.5038 18.5419C18.6228 19.0802 18.4708 19.2941 17.934 19.4186C16.9874 19.6385 16.0417 19.8614 15.0916 20.0634C14.6393 20.1593 14.4428 20.0159 14.3329 19.5665C14.1824 18.9528 14.0345 18.338 13.893 17.7222C13.7661 17.1689 13.909 16.97 14.4678 16.8446C15.236 16.6721 16.0023 16.4842 16.782 16.3003ZM15.1341 18.1461C15.1281 18.2745 15.1491 18.3885 15.1861 18.4999C15.3025 18.8518 15.4645 18.9423 15.8233 18.8588C16.1462 18.7833 16.4701 18.7104 16.7935 18.6374C17.0169 18.5869 17.1223 18.4365 17.1038 18.2215C17.0803 17.9456 17.0943 17.6408 16.792 17.4833C16.7425 17.4578 16.662 17.4798 16.599 17.4938C16.2107 17.5803 15.8243 17.6777 15.4345 17.7567C15.2046 17.8032 15.1016 17.9242 15.1341 18.1461Z" fill="#FEFEFE"/>
<path d="M13.3792 20.1388C13.8471 20.1383 14.2234 20.5152 14.2164 20.978C14.2094 21.4298 13.8381 21.7907 13.3782 21.7917C12.9184 21.7922 12.547 21.4303 12.543 20.9775C12.5391 20.5072 12.9059 20.1393 13.3792 20.1388Z" fill="#FEFEFE"/>
<path d="M18.1105 21.031C18.107 20.897 18.1949 20.869 18.2919 20.8481C18.4753 20.8086 18.6578 20.7651 18.8417 20.7261C18.9731 20.6981 19.0286 20.7266 19.0591 20.8571C19.1526 21.2569 19.2395 21.6588 19.33 22.0651L19.0261 22.1331C18.9996 22.0151 18.9736 21.8962 18.9466 21.7772C18.9012 21.5768 18.8552 21.3764 18.8082 21.1764C18.7832 21.0695 18.7592 21.0555 18.6538 21.079C18.5733 21.097 18.4923 21.115 18.4118 21.1329C18.3224 21.1529 18.3019 21.1834 18.3214 21.2754C18.3524 21.4218 18.3859 21.5678 18.4183 21.7137C18.4573 21.8882 18.4963 22.0621 18.5363 22.242L18.2344 22.3095C18.2144 22.2935 18.2169 22.267 18.2114 22.244C18.1479 21.9626 18.086 21.6812 18.023 21.4003C18.015 21.3654 18.0065 21.3309 17.994 21.2974C17.9795 21.2569 17.95 21.2364 17.905 21.2464C17.7981 21.2699 17.6916 21.2944 17.5847 21.3179C17.5377 21.3284 17.5172 21.3589 17.5197 21.4048C17.5212 21.4338 17.5257 21.4623 17.5322 21.4908C17.5972 21.7832 17.6621 22.0751 17.7276 22.3675C17.7316 22.3845 17.7351 22.4015 17.7396 22.422L17.4422 22.4884C17.4232 22.4784 17.4252 22.4585 17.4217 22.442C17.3378 22.0646 17.2533 21.6877 17.1708 21.3099C17.1358 21.1499 17.1693 21.0995 17.3293 21.0635C17.5167 21.021 17.7041 20.979 17.8915 20.938C18.009 20.912 18.05 20.928 18.1105 21.031Z" fill="#FEFEFE"/>
<path d="M25.2573 21.3579C25.2348 21.2564 25.2138 21.1634 25.1918 21.064C25.2533 21.0505 25.3113 21.0365 25.3697 21.0245C25.4252 21.013 25.4527 20.979 25.4437 20.924C25.4342 20.8626 25.4177 20.8026 25.4037 20.7406C25.3872 20.7291 25.3697 20.7396 25.3532 20.7431C25.1568 20.7856 24.9599 20.8281 24.764 20.8715C24.6055 20.907 24.5525 20.876 24.5161 20.7166C24.4426 20.3917 24.3706 20.0668 24.2991 19.7415C24.2926 19.711 24.2886 19.6795 24.2876 19.6485C24.2851 19.5765 24.3191 19.5271 24.3891 19.5106C24.678 19.4411 24.9669 19.3721 25.2568 19.3066C25.3582 19.2836 25.4172 19.3256 25.4472 19.4361C25.4707 19.5221 25.4887 19.61 25.5082 19.697C25.6116 20.1478 25.7071 20.6006 25.7976 21.054C25.8206 21.1699 25.7936 21.2309 25.6921 21.2579C25.5507 21.2959 25.4062 21.3244 25.2573 21.3579ZM25.2523 20.0399C25.2293 19.9374 25.2048 19.8354 25.1843 19.7325C25.1708 19.6655 25.1338 19.6425 25.0688 19.658C24.9519 19.6865 24.8344 19.7145 24.717 19.7425C24.657 19.7565 24.637 19.797 24.649 19.8529C24.693 20.0559 24.738 20.2588 24.7845 20.4612C24.799 20.5237 24.8389 20.5502 24.9039 20.5362C25.0194 20.5107 25.1353 20.4857 25.2508 20.4602C25.3128 20.4467 25.3358 20.4107 25.3208 20.3477C25.2963 20.2458 25.2753 20.1423 25.2523 20.0399Z" fill="#FEFEFE"/>
<path d="M17.0239 21.8587C17.0629 22.0331 17.1033 22.207 17.1398 22.3815C17.1658 22.5059 17.1288 22.5624 17.0069 22.5899C16.748 22.6489 16.4886 22.7064 16.2292 22.7633C16.1122 22.7888 16.0542 22.7573 16.0247 22.6414C15.9353 22.289 15.8573 21.9337 15.7873 21.5763C15.7638 21.4573 15.8053 21.4023 15.9253 21.3754C16.1822 21.3174 16.4391 21.2599 16.6965 21.2034C16.8174 21.1769 16.8779 21.2139 16.9069 21.3359C16.9479 21.5098 16.9854 21.6842 17.0239 21.8587ZM16.2102 22.0371C16.2322 22.1351 16.2517 22.234 16.2766 22.3315C16.2981 22.416 16.3306 22.434 16.4131 22.416C16.5026 22.3965 16.592 22.3765 16.681 22.356C16.782 22.333 16.8005 22.308 16.7805 22.2065C16.757 22.0881 16.729 21.9706 16.7025 21.8532C16.686 21.7792 16.672 21.7042 16.651 21.6313C16.6285 21.5528 16.6 21.5373 16.5236 21.5538C16.4296 21.5738 16.3361 21.5953 16.2422 21.6163C16.1482 21.6378 16.1292 21.6657 16.1492 21.7627C16.1682 21.8547 16.1897 21.9456 16.2102 22.0371Z" fill="#FEFEFE"/>
<path d="M27.0961 20.3502L26.7997 20.4162C26.7747 20.3977 26.7777 20.3682 26.7722 20.3432C26.7072 20.0554 26.6443 19.7675 26.5793 19.4796C26.5483 19.3416 26.5283 19.3296 26.3914 19.3601C26.3109 19.3781 26.2299 19.3966 26.1494 19.4141C26.0195 19.4421 26.0045 19.4641 26.033 19.5925C26.098 19.8849 26.1634 20.1773 26.2284 20.4692C26.2334 20.4907 26.2379 20.5122 26.2439 20.5377L25.9375 20.6061C25.8106 20.0379 25.6841 19.4701 25.5562 18.8968C25.6561 18.8698 25.7541 18.8433 25.8576 18.8148C25.883 18.9298 25.9075 19.0382 25.9335 19.1547C26.0035 19.1392 26.068 19.1247 26.133 19.1102C26.2899 19.0752 26.4468 19.0397 26.6043 19.0052C26.7357 18.9758 26.7952 19.0107 26.8267 19.1462C26.8897 19.4161 26.9486 19.687 27.0091 19.9574C27.0376 20.0858 27.0661 20.2138 27.0961 20.3502Z" fill="#FEFEFE"/>
<path d="M20.1242 20.8146C20.0997 20.7606 20.0532 20.7646 20.0018 20.7771C19.9128 20.7986 19.8228 20.8166 19.7339 20.8376C19.6619 20.8546 19.6444 20.8895 19.6624 20.9745C19.6804 21.0575 19.7129 21.085 19.7848 21.0695C19.9533 21.0345 20.1212 20.997 20.2891 20.9605C20.4201 20.932 20.4741 20.9605 20.5056 21.089C20.549 21.2669 20.589 21.4458 20.6245 21.6253C20.647 21.7382 20.608 21.7937 20.4956 21.8192C20.2432 21.8772 19.9903 21.9336 19.7368 21.9881C19.6289 22.0116 19.5704 21.9746 19.5404 21.8697C19.5234 21.8097 19.5129 21.7482 19.4984 21.6832C19.6014 21.6603 19.7009 21.6383 19.8058 21.6148C19.8333 21.6692 19.8828 21.6638 19.9358 21.6518C20.0247 21.6308 20.1142 21.6103 20.2042 21.5923C20.2662 21.5803 20.2951 21.5518 20.2751 21.4858C20.2642 21.4498 20.2587 21.4118 20.2502 21.3749C20.2277 21.2794 20.2212 21.2734 20.1217 21.2934C19.9598 21.3254 19.7978 21.3599 19.6359 21.3939C19.4889 21.4243 19.4325 21.3899 19.4 21.2454C19.3675 21.1015 19.335 20.9575 19.304 20.8136C19.276 20.6821 19.316 20.6196 19.446 20.5907C19.6859 20.5372 19.9258 20.4832 20.1657 20.4302C20.3031 20.3997 20.3536 20.4302 20.3906 20.5662C20.4066 20.6241 20.4171 20.6831 20.4311 20.7461L20.1242 20.8146Z" fill="#FEFEFE"/>
<path d="M21.5152 20.6801C21.5067 20.6426 21.5022 20.6186 21.4962 20.5952C21.4612 20.4617 21.4477 20.4537 21.3098 20.4847C21.2468 20.4987 21.1838 20.5127 21.1163 20.5277L21.0519 20.2393C21.0609 20.2223 21.0788 20.2243 21.0928 20.2213C21.2408 20.1883 21.3892 20.1548 21.5377 20.1238C21.6441 20.1013 21.7166 20.1393 21.7386 20.2363C21.8186 20.5867 21.8975 20.9375 21.972 21.2889C22.002 21.4303 21.96 21.4848 21.8186 21.5163C21.5657 21.5733 21.3133 21.6298 21.0604 21.6867C20.9379 21.7142 20.8799 21.6787 20.8514 21.5568C20.8114 21.3874 20.7715 21.2179 20.733 21.048C20.702 20.912 20.7405 20.8531 20.8764 20.8226C21.0873 20.7756 21.2988 20.7286 21.5152 20.6801ZM21.3667 21.3379C21.4057 21.3294 21.4447 21.3189 21.4847 21.3119C21.5422 21.3019 21.5907 21.2794 21.5947 21.2144C21.5992 21.1379 21.5882 21.063 21.5317 21.004C21.5182 20.99 21.4987 20.994 21.4807 20.9965C21.3592 21.015 21.2403 21.046 21.1213 21.0765C21.0848 21.086 21.0689 21.1095 21.0679 21.1434C21.0664 21.1904 21.0689 21.2374 21.0868 21.2819C21.1193 21.3624 21.1588 21.3839 21.2433 21.3654C21.2848 21.3564 21.3258 21.3474 21.3667 21.3379Z" fill="#FEFEFE"/>
<path d="M23.2085 19.4141C23.2625 19.657 23.3165 19.8979 23.3735 20.1538C23.466 20.0164 23.5564 19.8949 23.6324 19.7655C23.6844 19.677 23.7493 19.629 23.8508 19.6155C23.9383 19.604 24.0232 19.5785 24.1272 19.5555C24.0362 19.704 23.9548 19.8384 23.8718 19.9724C23.8223 20.0524 23.7738 20.1323 23.7214 20.2098C23.6689 20.2873 23.6699 20.3263 23.7433 20.3872C23.8948 20.5122 24.0487 20.6346 24.2017 20.7581C24.2741 20.8166 24.3466 20.8755 24.4266 20.9405L24.0347 21.028C23.8528 20.8815 23.6654 20.7306 23.4675 20.5712C23.5099 20.7621 23.5504 20.943 23.5914 21.1275L23.285 21.1959C23.1576 20.6256 23.0311 20.0574 22.9027 19.4826L23.2085 19.4141Z" fill="#FEFEFE"/>
<path d="M15.4205 21.4903C15.444 21.5963 15.466 21.6932 15.4889 21.7977L15.2175 21.8582C15.255 22.0266 15.2905 22.1871 15.327 22.348C15.3415 22.4135 15.3545 22.4794 15.373 22.5434C15.395 22.6199 15.4245 22.6359 15.5019 22.6194C15.5694 22.6049 15.6364 22.5894 15.7079 22.5734C15.7299 22.6724 15.7508 22.7668 15.7718 22.8608C15.5994 22.8993 15.429 22.9413 15.2565 22.9733C15.1956 22.9848 15.1516 22.9393 15.1311 22.8818C15.1146 22.8358 15.1026 22.7878 15.0916 22.7398C15.0311 22.4719 14.9716 22.204 14.9107 21.9302L14.7352 21.9691C14.7117 21.8642 14.6897 21.7657 14.6663 21.6603L14.8402 21.6213L14.7687 21.2999C14.8727 21.2684 14.9696 21.2389 15.0751 21.2199C15.0996 21.3294 15.1231 21.4353 15.1486 21.5498L15.4205 21.4903Z" fill="#FEFEFE"/>
<path d="M22.8607 20.2053L22.5608 20.2723C22.5073 20.2243 22.4103 20.2163 22.3514 20.2593C22.3104 20.2888 22.3159 20.3337 22.3244 20.3757C22.3504 20.5002 22.3784 20.6246 22.4058 20.7486C22.4498 20.947 22.4943 21.1449 22.5398 21.3494L22.2334 21.4178C22.2029 21.2819 22.1729 21.1454 22.1424 21.009C22.0815 20.7366 22.011 20.4667 21.963 20.1913C21.944 20.0808 21.9805 20.0269 22.0895 20.0014C22.2654 19.9599 22.4418 19.9204 22.6188 19.8834C22.7247 19.8609 22.7867 19.8994 22.8147 20.0029C22.8322 20.0673 22.8442 20.1328 22.8607 20.2053Z" fill="#FEFEFE"/>
<path fill-rule="evenodd" clip-rule="evenodd" d="M26.5997 18.1082L13.4066 21.0826L13.3538 20.8485L26.5469 17.8741L26.5997 18.1082Z" fill="#FEFEFE"/>
</svg>
