<svg width="36" height="36" viewBox="0 0 36 36" fill="none" xmlns="http://www.w3.org/2000/svg">
<rect width="36" height="36" fill="#14161A"/>
<path d="M18 28C23.5228 28 28 23.5228 28 18C28 12.4772 23.5228 8 18 8C12.4772 8 8 12.4772 8 18C8 23.5228 12.4772 28 18 28Z" fill="#80C853"/>
<path d="M19.7454 20.8938C20.2327 22.6158 21.8448 23.3924 23.2096 23.1447C24.6348 22.8859 25.706 21.6676 25.7216 20.1918C25.7373 18.7161 24.7265 17.5317 23.4081 17.2085C22.5996 17.0102 21.8176 17.1301 21.112 17.5651C20.4091 17.9982 19.9472 18.6336 19.7431 19.4522C19.5056 19.4696 19.2735 19.4691 19.0398 19.4545C19.2257 18.0955 20.5436 16.5114 22.5223 16.4249C24.6079 16.3335 26.2878 17.9376 26.4185 19.8945C26.5592 22.0047 24.9581 23.7722 22.9039 23.8854C20.902 23.9955 19.3359 22.5524 19.0427 20.9128C19.0629 20.892 19.0896 20.8943 19.1148 20.8943C19.3238 20.894 19.5328 20.8938 19.7454 20.8938Z" fill="#FAFDF7"/>
<path d="M14.0669 18.0213C13.9996 18.2365 13.9994 18.4365 13.926 18.6349C13.7131 18.572 13.5013 18.5422 13.299 18.5176C13.2666 18.4354 13.2936 18.3772 13.3062 18.3212C13.4543 17.6626 13.5984 17.0033 13.7085 16.3371C13.7185 16.2772 13.7285 16.2197 13.7889 16.1848C13.8446 16.1527 13.8443 16.0901 13.853 16.0372C13.9786 15.2821 14.1319 14.5321 14.2723 13.7801C14.3185 13.5326 14.3794 13.2887 14.4089 13.0371C14.4343 12.8199 14.5016 12.6078 14.5386 12.3906C14.5709 12.2014 14.6597 12.1182 14.851 12.1146C15.27 12.1067 15.6896 12.1079 16.1086 12.1141C16.2788 12.1167 16.4195 12.2568 16.4305 12.4083C16.4428 12.5775 16.3322 12.7097 16.1442 12.7444C16.0901 12.7544 16.0336 12.7554 15.9784 12.7557C15.7003 12.7567 15.4223 12.7557 15.1442 12.7565C15.0936 12.7565 15.0413 12.7483 14.9915 12.7729C14.9365 12.8189 14.9417 12.8884 14.9301 12.9493C14.7427 13.945 14.5576 14.9411 14.3714 15.9373C14.3514 16.0446 14.3029 16.1501 14.3719 16.2598C14.3917 16.2911 14.374 16.335 14.3668 16.373C14.3321 16.5535 14.3006 16.7348 14.2636 16.9147C14.2466 16.9979 14.2569 17.0726 14.288 17.1517C14.3786 17.383 14.4911 17.6038 14.611 17.82C14.9506 18.4321 15.2657 19.0565 15.5827 19.6801C15.6038 19.7217 15.6218 19.7659 15.6662 19.8062H20.5521C20.5628 19.7962 20.5729 19.7913 20.5747 19.7844C20.6447 19.5143 20.7559 19.2609 20.8794 19.0121C20.9005 18.9695 20.9238 18.9302 20.957 18.8958C21.1018 18.7446 21.2576 18.6064 21.4163 18.4696C21.6301 18.2855 21.871 18.1666 22.139 18.1006C22.5596 17.9969 22.9783 18.0154 23.3904 18.1505C23.4939 18.1843 23.5737 18.249 23.5899 18.3636C23.605 18.4709 23.5565 18.5543 23.471 18.6172C23.3991 18.6701 23.3216 18.6701 23.2389 18.6452C22.9778 18.5661 22.7136 18.5353 22.4412 18.5844C22.1483 18.6372 21.8828 18.7502 21.661 18.9474C21.531 19.0627 21.3932 19.1767 21.3177 19.3412C21.2124 19.5703 21.1169 19.8039 21.1087 20.0599C21.0961 20.4447 21.0034 20.5387 20.6157 20.5387C18.9944 20.5387 17.373 20.5387 15.7517 20.5387C15.7088 20.5387 15.6659 20.5402 15.6233 20.5374C15.4608 20.5264 15.327 20.4671 15.24 20.3194C15.1203 20.1164 15.023 19.902 14.9167 19.6925C14.6672 19.2011 14.4217 18.7076 14.1737 18.2154C14.1452 18.1587 14.1124 18.1037 14.0674 18.0226L14.0669 18.0213Z" fill="#205062"/>
<path d="M13.317 16.4482C13.2936 16.667 13.2438 16.8896 13.1965 17.1214C13.0291 17.1378 12.8728 17.1543 12.718 17.1823C12.3811 17.2426 12.0699 17.3661 11.7744 17.5343C11.3816 17.7579 11.0674 18.0673 10.8006 18.4283C10.7811 18.4547 10.77 18.4873 10.7554 18.5173C10.6712 18.6894 10.5498 18.839 10.4807 19.0216C10.1641 19.8565 10.1831 20.6771 10.5711 21.484C10.8874 22.1416 11.387 22.6217 12.0466 22.918C12.8091 23.2605 13.5925 23.2838 14.3799 22.9822C15.0433 22.7282 15.5458 22.2835 15.9111 21.683C16.0323 21.4838 16.1317 21.2689 16.1905 21.0396C16.202 20.9942 16.2164 20.9495 16.2305 20.9005H16.9684C16.9289 21.0812 16.8844 21.2486 16.8246 21.4114C16.7096 21.7251 16.5602 22.0206 16.3674 22.2959C16.2641 22.4432 16.1327 22.5634 16.0236 22.7041C15.9263 22.8296 15.8028 22.9285 15.6857 23.0338C15.6159 23.0967 15.5406 23.1501 15.451 23.186C15.3486 23.2271 15.2806 23.3205 15.1863 23.3768C14.8726 23.5642 14.5401 23.6998 14.1835 23.7853C13.6977 23.9018 13.2102 23.9213 12.7193 23.8446C12.2553 23.7722 11.8227 23.6135 11.4147 23.3737C10.9426 23.0962 10.5544 22.7347 10.2417 22.29C10.0396 22.0027 9.88761 21.6902 9.77104 21.3564C9.57515 20.7947 9.53278 20.2227 9.60724 19.638C9.67579 19.0996 9.8663 18.6049 10.1567 18.1479C10.5174 17.5802 11.0006 17.1435 11.5932 16.8326C12.1005 16.5663 12.6474 16.4382 13.2199 16.4195C13.2494 16.4184 13.2805 16.4154 13.317 16.4482Z" fill="#FAFDF7"/>
<path d="M19.2748 15.9183C19.0955 15.9029 18.9507 15.9116 18.8059 15.9103C18.6275 15.9085 18.5127 15.8361 18.4614 15.696C18.3946 15.5139 18.4978 15.3214 18.6871 15.28C18.7325 15.27 18.7803 15.2669 18.827 15.2667C19.37 15.2659 19.913 15.2662 20.456 15.2667C20.4987 15.2667 20.5415 15.2675 20.5842 15.271C20.7464 15.2847 20.8691 15.4141 20.873 15.5748C20.8771 15.7458 20.7629 15.8844 20.5962 15.9032C20.5243 15.9111 20.4512 15.9085 20.3785 15.9091C20.2763 15.9098 20.1739 15.9091 20.0519 15.9091C19.6501 16.8565 19.2481 17.8044 18.848 18.7476H17.1171C17.0113 18.5222 16.9222 18.2932 16.7787 18.0516C17.3348 18.0439 17.8611 18.0529 18.3844 18.0501C18.6781 17.3332 18.9882 16.6426 19.2748 15.9183Z" fill="#FAFDF7"/>
<path d="M13.327 21.5908C12.5639 21.6255 11.881 20.9605 11.8841 20.1546C11.8874 19.3266 12.5624 18.7877 13.0908 18.7173C13.4104 18.6747 13.7231 18.6924 14.0104 18.8755C14.2415 19.0226 14.4438 19.1928 14.5832 19.4321C14.7139 19.6563 14.7606 19.8984 14.7668 20.1562C14.7858 20.9577 14.09 21.6201 13.327 21.5908ZM12.4009 20.1556C12.4019 20.2409 12.397 20.3261 12.4255 20.4093C12.5285 20.7079 12.7131 20.9266 13.0173 21.0368C13.3442 21.1552 13.6443 21.0994 13.9065 20.884C14.2097 20.6347 14.3162 20.3097 14.2287 19.9217C14.1886 19.7443 14.0744 19.6237 13.9504 19.504C13.6615 19.2252 13.3742 19.1538 13.0171 19.2727C12.6168 19.4059 12.377 19.8018 12.4009 20.1556Z" fill="#205062"/>
<path d="M22.6946 21.5932C22.1896 21.5834 21.8019 21.3626 21.4946 20.9628C21.2268 20.6147 21.2209 20.2365 21.2987 19.8357C21.3724 19.4555 21.6245 19.1451 21.9518 18.9497C22.2112 18.7949 22.5131 18.7027 22.8148 18.7199C23.2654 18.7453 23.6651 19.0216 23.9026 19.3972C24.1755 19.8291 24.1979 20.2843 23.9932 20.7438C23.7876 21.2057 23.422 21.4789 22.9259 21.5778C22.8494 21.5929 22.7727 21.5891 22.6946 21.5932ZM23.6179 20.1492C23.6441 19.8958 23.5278 19.6868 23.3293 19.5153C23.1501 19.3605 22.9683 19.2285 22.7092 19.2221C22.2117 19.2103 21.7562 19.6085 21.7536 20.1567C21.7513 20.6491 22.1716 21.0976 22.6936 21.0992C23.1624 21.1007 23.6618 20.6612 23.6179 20.1492Z" fill="#205062"/>
<path d="M16.9622 19.4565C16.7194 19.4688 16.4898 19.4645 16.2585 19.4591C16.2066 19.362 16.1887 19.2604 16.155 19.1649C15.9535 18.5941 15.6218 18.1127 15.1314 17.7592C14.9368 17.619 14.8212 17.4408 14.7201 17.2393C14.7106 17.2203 14.7067 17.1977 14.6941 17.1815C14.5758 17.029 14.6156 16.8695 14.6723 16.6865C15.1519 16.8629 15.5722 17.1263 15.9139 17.4911C16.4321 18.0442 16.8554 18.6573 16.9622 19.4565Z" fill="#FAFDF7"/>
</svg>
